<svg xmlns="http://www.w3.org/2000/svg" xmlns:xlink="http://www.w3.org/1999/xlink"><symbol id="InlineSprite">
<symbol id="icon-open-menu" viewBox="0 0 14 14">
<path d="M1 1L7.5 7.5M14 14L7.5 7.5M7.5 7.5L14 1L1 14" stroke="#011C40" stroke-width="2"/>
</symbol>
<symbol id="icon-close-menu" viewBox="0 0 24 13">
<path d="M0 1H24M0 7H24M0 13H24" stroke="#F9FBFD" stroke-width="2"/>
</symbol>
</symbol><symbol id="icon-close-menu" viewBox="0 0 15 15">
<path d="M1 1L7.5 7.5M14 14L7.5 7.5M7.5 7.5L14 1L1 14" stroke="#011C40" stroke-width="2"/>
</symbol><symbol id="icon-close" viewBox="0 0 20 20"><path d="M.293 18.291a1 1 0 101.414 1.414L10 11.413l8.292 8.292a1 1 0 101.414-1.414l-8.292-8.292 8.292-8.292A1 1 0 1018.291.293L9.999 8.585 1.707.293A1 1 0 10.293 1.707L8.585 10 .293 18.291z"/></symbol><symbol id="icon-open-menu" viewBox="0 0 24 14">
<path d="M0 1H24M0 7H24M0 13H24" stroke="#F9FBFD" stroke-width="2"/>
</symbol></svg>